<?xml version="1.0" encoding="UTF-8"?>
<svg version="1.1" xmlns="http://www.w3.org/2000/svg" width="100" height="100">
<path d="M0 0 C5.61 0 11.22 0 17 0 C17.33 2.64 17.66 5.28 18 8 C39.78 8 61.56 8 84 8 C82.85365854 22.90243902 82.85365854 22.90243902 81.625 29.125 C81.39039062 30.36507812 81.15578125 31.60515625 80.9140625 32.8828125 C79.9783971 36.07367141 79.59035116 37.06310207 77 39 C74.58918762 39.36076355 74.58918762 39.36076355 71.70239258 39.34057617 C70.62149857 39.34034958 69.54060455 39.34012299 68.42695618 39.33988953 C66.67840584 39.31666374 66.67840584 39.31666374 64.89453125 39.29296875 C63.70018967 39.28872391 62.50584808 39.28447906 61.27531433 39.28010559 C57.45414856 39.26328959 53.63350684 39.22563093 49.8125 39.1875 C47.22461698 39.17245699 44.63672571 39.15876792 42.04882812 39.14648438 C35.69903942 39.11337645 29.34955714 39.06314762 23 39 C23.42257276 40.4835001 23.86356322 41.96176424 24.3125 43.4375 C24.55613281 44.26121094 24.79976562 45.08492187 25.05078125 45.93359375 C25.36402344 46.61550781 25.67726563 47.29742187 26 48 C28.78771931 48.92923977 30.58234248 49.14867338 33.47143555 49.20532227 C34.37214279 49.22526749 35.27285004 49.24521271 36.20085144 49.26576233 C37.16968765 49.28247482 38.13852386 49.29918732 39.13671875 49.31640625 C40.62858452 49.3475779 40.62858452 49.3475779 42.15058899 49.37937927 C45.32948867 49.44479412 48.50847134 49.5037224 51.6875 49.5625 C53.84180548 49.60569288 55.99610254 49.64930742 58.15039062 49.69335938 C63.43350588 49.80046726 68.71670379 49.90224873 74 50 C74 50.66 74 51.32 74 52 C67.09508853 52.12672146 60.19047656 52.21431806 53.28466797 52.2746582 C50.93527012 52.29981062 48.58595059 52.33393663 46.23681641 52.37719727 C42.86080617 52.43781426 39.48582989 52.46620295 36.109375 52.48828125 C34.53261993 52.52699089 34.53261993 52.52699089 32.92401123 52.56648254 C25.7645938 52.5692395 25.7645938 52.5692395 22.42578125 50.08349609 C20.46815416 45.8497923 19.74825493 41.77155105 19.078125 37.17578125 C18.92841248 36.2331694 18.77869995 35.29055756 18.62445068 34.31938171 C18.1516644 31.31915903 17.70076867 28.31610107 17.25 25.3125 C16.93238518 23.28038034 16.61338982 21.24847594 16.29296875 19.21679688 C15.71342814 15.51074573 15.13787755 11.80421449 14.57910156 8.0949707 C14.46681213 7.35060257 14.35452271 6.60623444 14.23883057 5.83930969 C14 4 14 4 14 2 C9.38 2 4.76 2 0 2 C0 1.34 0 0.68 0 0 Z " fill="#6A20A7" transform="translate(4,14)"/>
<path d="M0 0 C0.70125 0.00515625 1.4025 0.0103125 2.125 0.015625 C2.82625 0.01046875 3.5275 0.0053125 4.25 0 C6.125 0.265625 6.125 0.265625 8.125 2.265625 C8.390625 4.140625 8.390625 4.140625 8.375 6.265625 C8.38015625 6.966875 8.3853125 7.668125 8.390625 8.390625 C8.125 10.265625 8.125 10.265625 6.125 12.265625 C4.25 12.53125 4.25 12.53125 2.125 12.515625 C1.42375 12.52078125 0.7225 12.5259375 0 12.53125 C-1.875 12.265625 -1.875 12.265625 -3.875 10.265625 C-4.140625 8.390625 -4.140625 8.390625 -4.125 6.265625 C-4.13015625 5.564375 -4.1353125 4.863125 -4.140625 4.140625 C-3.75603481 1.4258707 -2.7147543 0.38459019 0 0 Z " fill="#6B21A8" transform="translate(67.875,73.734375)"/>
<path d="M0 0 C0.70125 0.00515625 1.4025 0.0103125 2.125 0.015625 C2.82625 0.01046875 3.5275 0.0053125 4.25 0 C6.125 0.265625 6.125 0.265625 8.125 2.265625 C8.390625 4.140625 8.390625 4.140625 8.375 6.265625 C8.38015625 6.966875 8.3853125 7.668125 8.390625 8.390625 C8.125 10.265625 8.125 10.265625 6.125 12.265625 C4.25 12.53125 4.25 12.53125 2.125 12.515625 C1.42375 12.52078125 0.7225 12.5259375 0 12.53125 C-1.875 12.265625 -1.875 12.265625 -3.875 10.265625 C-4.140625 8.390625 -4.140625 8.390625 -4.125 6.265625 C-4.13015625 5.564375 -4.1353125 4.863125 -4.140625 4.140625 C-3.75603481 1.4258707 -2.7147543 0.38459019 0 0 Z " fill="#6B21A8" transform="translate(35.875,73.734375)"/>
</svg>
